<svg id="Layer_1" data-name="Layer 1" xmlns="http://www.w3.org/2000/svg" viewBox="0 0 861 96"><defs><style>.cls-1{fill:#00b67a;}.cls-2{fill:#dcdce6;}.cls-3{fill:#fff;}.cls-4{fill:#005128;}</style></defs><g id="Trustpilot_ratings_4halfstar-RGB" data-name="Trustpilot ratings 4halfstar-RGB"><rect id="Rectangle-path" class="cls-1" width="96" height="96"/><rect class="cls-1" x="104" width="96" height="96"/><rect class="cls-1" x="208" width="96" height="96"/><rect class="cls-1" x="312" width="96" height="96"/><g id="Half"><rect class="cls-2" x="464" width="48" height="96"/><rect class="cls-1" x="416" width="48" height="96"/></g><path id="Shape" class="cls-3" d="M56.34,91.3l14.6-3.7L77,106.4ZM89.94,67H64.24l-7.9-24.2L48.44,67H22.74l20.8,15-7.9,24.2,20.8-15L69.24,82l20.7-15Z" transform="translate(-8 -27)"/><path class="cls-3" d="M160.34,91.3l14.6-3.7,6.1,18.8ZM193.94,67h-25.7l-7.9-24.2L152.44,67h-25.7l20.8,15-7.9,24.2,20.8-15,12.8-9.2,20.7-15Z" transform="translate(-8 -27)"/><path class="cls-3" d="M264.34,91.3l14.6-3.7,6.1,18.8ZM297.94,67h-25.7l-7.9-24.2L256.44,67h-25.7l20.8,15-7.9,24.2,20.8-15,12.8-9.2,20.7-15Z" transform="translate(-8 -27)"/><path class="cls-3" d="M368.34,91.3l14.6-3.7,6.1,18.8ZM401.94,67h-25.7l-7.9-24.2L360.44,67h-25.7l20.8,15-7.9,24.2,20.8-15,12.8-9.2,20.7-15Z" transform="translate(-8 -27)"/><path class="cls-3" d="M472.34,91.3l14.6-3.7,6.1,18.8ZM505.94,67h-25.7l-7.9-24.2L464.44,67h-25.7l20.8,15-7.9,24.2,20.8-15,12.8-9.2,20.7-15Z" transform="translate(-8 -27)"/></g><g id="Type"><path class="cls-3" d="M627.25,65.35h33.27v6.08h-13v34.74h-7.24V71.43h-13V65.35Zm31.56,11.29h6.34v5.79h0a6.86,6.86,0,0,1,1.14-2.34A10.83,10.83,0,0,1,671,76.47a8.12,8.12,0,0,1,3-.58c.76,0,1.32,0,1.61.06s.59.08.91.11v6.31c-.47-.08-.94-.14-1.44-.2a11.68,11.68,0,0,0-1.43-.09,7.89,7.89,0,0,0-3.16.67,7.27,7.27,0,0,0-2.58,1.94,9.89,9.89,0,0,0-1.75,3.18,13.41,13.41,0,0,0-.65,4.38v14.21h-6.66V76.64Zm47.75,29.82h-6.37v-4.34h-.12a9,9,0,0,1-3.59,3.62,9.85,9.85,0,0,1-4.87,1.37c-3.92,0-6.76-1-8.5-2.92s-2.61-4.9-2.61-8.84v-19h6.37V94.79c.06,2.61.56,4.46,1.57,5.53a5.42,5.42,0,0,0,4.2,1.63,8.06,8.06,0,0,0,3.44-.64,5.88,5.88,0,0,0,2.23-1.71,6.48,6.48,0,0,0,1.25-2.55,11,11,0,0,0,.34-3.21V76.64h6.66Zm11-9.61a5.06,5.06,0,0,0,2.17,4,8.74,8.74,0,0,0,4.54,1.15c.6,0,1.29-.06,2.07-.14a8.87,8.87,0,0,0,2.2-.55,4.23,4.23,0,0,0,1.7-1.19,3.11,3.11,0,0,0-.31-4.07,6.54,6.54,0,0,0-2.2-1.3,21.54,21.54,0,0,0-3.06-.84c-1.16-.23-2.31-.49-3.5-.75a32.49,32.49,0,0,1-3.52-1,10.35,10.35,0,0,1-3-1.56,6.77,6.77,0,0,1-2.14-2.48,7.78,7.78,0,0,1-.81-3.76,6.76,6.76,0,0,1,1.19-4,8.93,8.93,0,0,1,3-2.63,13.59,13.59,0,0,1,4-1.42,24.3,24.3,0,0,1,4.21-.4,19.49,19.49,0,0,1,4.39.49A11.42,11.42,0,0,1,732.24,78a9.33,9.33,0,0,1,2.8,2.83A9.85,9.85,0,0,1,736.45,85h-6.81a4.07,4.07,0,0,0-2.14-3.15,8.76,8.76,0,0,0-3.87-.81,11.82,11.82,0,0,0-1.65.12,8.82,8.82,0,0,0-1.79.43,3.83,3.83,0,0,0-1.41.92,2.24,2.24,0,0,0-.58,1.59,2.47,2.47,0,0,0,.84,1.94,7.14,7.14,0,0,0,2.16,1.24,21.69,21.69,0,0,0,3.07.84c1.15.23,2.33.49,3.55.75a35.45,35.45,0,0,1,3.49,1,10.63,10.63,0,0,1,3.06,1.56,7.62,7.62,0,0,1,2.17,2.45,7.51,7.51,0,0,1,.84,3.67,8,8,0,0,1-1.21,4.48,9.77,9.77,0,0,1-3.12,3,14.8,14.8,0,0,1-4.28,1.67,21.25,21.25,0,0,1-4.65.52,19.87,19.87,0,0,1-5.2-.63,12.78,12.78,0,0,1-4.13-1.91,9.51,9.51,0,0,1-2.74-3.21A10.46,10.46,0,0,1,711,96.91h6.58Zm21.66-20.21h5v-9h6.66v9h5.79v4.92h-6.08V97.43a15.89,15.89,0,0,0,.09,1.8,3.39,3.39,0,0,0,.41,1.27,1.89,1.89,0,0,0,1,.78,4.9,4.9,0,0,0,1.77.26c.47,0,.94,0,1.42,0a7.6,7.6,0,0,0,1.41-.2v5c-.72.09-1.44.14-2.11.23a16.38,16.38,0,0,1-2.11.12,14.54,14.54,0,0,1-4.17-.5,5.3,5.3,0,0,1-2.46-1.44,5,5,0,0,1-1.22-2.38,18,18,0,0,1-.38-3.27V81.56h-4.92V76.64Zm22.07,0h6.08v4h.21a7.86,7.86,0,0,1,3.85-3.79,12.7,12.7,0,0,1,5.35-1.13A13.83,13.83,0,0,1,782.89,77a12,12,0,0,1,4.35,3.38,15,15,0,0,1,2.57,5,21.09,21.09,0,0,1,.87,6.14,21.35,21.35,0,0,1-.78,5.79,15.37,15.37,0,0,1-2.35,5,11.49,11.49,0,0,1-4,3.45,11.86,11.86,0,0,1-5.71,1.3,16.27,16.27,0,0,1-2.86-.26,12.18,12.18,0,0,1-2.75-.84,10.13,10.13,0,0,1-2.44-1.48,8.61,8.61,0,0,1-1.88-2.11h-.26v14.77h-6.37Zm22.85,14.82a15,15,0,0,0-.52-3.9,10.4,10.4,0,0,0-1.57-3.36,7.89,7.89,0,0,0-2.57-2.35,7.95,7.95,0,0,0-9.79,2,12.71,12.71,0,0,0-2.09,7.64,14.87,14.87,0,0,0,.55,4.17,9.31,9.31,0,0,0,1.65,3.3,7.89,7.89,0,0,0,2.61,2.18,7.3,7.3,0,0,0,3.53.81,7.38,7.38,0,0,0,3.8-.93,8,8,0,0,0,2.54-2.37,9.89,9.89,0,0,0,1.45-3.33A18.72,18.72,0,0,0,784.14,91.46Zm11.6-26.11h6.66v6.08h-6.66Zm0,11.29h6.66v29.82h-6.66ZM807.9,65.35h6.66v41.11H807.9Zm26.79,41.75a16.25,16.25,0,0,1-6.34-1.19,13.25,13.25,0,0,1-7.64-8.19,19,19,0,0,1-1-6.31,18.81,18.81,0,0,1,1-6.26,14.09,14.09,0,0,1,2.92-5A13.39,13.39,0,0,1,828.35,77,17.48,17.48,0,0,1,841,77a13.89,13.89,0,0,1,4.72,3.24,14.11,14.11,0,0,1,2.93,5,18.81,18.81,0,0,1,1,6.26,19,19,0,0,1-1,6.31,14.11,14.11,0,0,1-2.93,5,13.21,13.21,0,0,1-4.72,3.24A16.18,16.18,0,0,1,834.69,107.1Zm0-5.18a7.59,7.59,0,0,0,3.8-.93,8.08,8.08,0,0,0,2.63-2.4,10.86,10.86,0,0,0,1.54-3.36,15.81,15.81,0,0,0,.49-3.82,16,16,0,0,0-.49-3.8,9.94,9.94,0,0,0-1.54-3.36,8,8,0,0,0-2.63-2.37,8.21,8.21,0,0,0-7.59,0,8.34,8.34,0,0,0-2.63,2.37,10.55,10.55,0,0,0-1.54,3.36,15.06,15.06,0,0,0,0,7.62,10.21,10.21,0,0,0,1.54,3.36,8.08,8.08,0,0,0,2.63,2.4A7.27,7.27,0,0,0,834.69,101.92Zm16.88-25.28h5v-9h6.66v9H869v4.92h-6.08V97.43a15.89,15.89,0,0,0,.09,1.8,3.22,3.22,0,0,0,.41,1.27,1.85,1.85,0,0,0,1,.78,4.9,4.9,0,0,0,1.77.26c.47,0,.94,0,1.41,0a7.59,7.59,0,0,0,1.42-.2v5c-.72.09-1.45.14-2.11.23a16.43,16.43,0,0,1-2.12.12,14.63,14.63,0,0,1-4.17-.5,5.4,5.4,0,0,1-2.46-1.44,5,5,0,0,1-1.21-2.38,17.19,17.19,0,0,1-.38-3.27V81.56h-4.92V76.64Z" transform="translate(-8 -27)"/></g><g id="Star"><polygon class="cls-1" points="611.56 38.35 581.56 38.35 572.29 9.8 563 38.35 533 38.32 557.29 55.98 548 84.5 572.29 66.87 596.56 84.5 587.29 55.98 611.56 38.35 611.56 38.35 611.56 38.35"/><polygon class="cls-4" points="589.38 62.35 587.29 55.9 572.29 66.78 589.38 62.35"/></g></svg>